<svg xmlns="http://www.w3.org/2000/svg" version="1.1" xmlns:xlink="http://www.w3.org/1999/xlink" xmlns:svgjs="http://svgjs.dev/svgjs" width="1500" height="1500" viewBox="0 0 1500 1500"><rect width="1500" height="1500" fill="#000000"></rect><g transform="matrix(0.6666666666666666,0,0,0.6666666666666666,249.39393939393938,483.55388070342354)"><svg viewBox="0 0 396 211" data-background-color="#ffffff" preserveAspectRatio="xMidYMid meet" height="799" width="1500" xmlns="http://www.w3.org/2000/svg" xmlns:xlink="http://www.w3.org/1999/xlink"><g id="tight-bounds" transform="matrix(1,0,0,1,0.2400000000000091,0.044676792698979284)"><svg viewBox="0 0 395.52 210.91064641460193" height="210.91064641460193" width="395.52"><g><svg viewBox="0 0 517.7990294737667 276.11581720056046" height="210.91064641460193" width="395.52"><g transform="matrix(1,0,0,1,205.98418208915143,0)"><svg viewBox="0 0 311.81484738461535 276.11581720056046" height="276.11581720056046" width="311.81484738461535"><g id="textblocktransform"><svg viewBox="0 0 311.81484738461535 276.11581720056046" height="276.11581720056046" width="311.81484738461535" id="textblock"><g><svg viewBox="0 0 311.81484738461535 245.672304" height="245.672304" width="311.81484738461535"><g transform="matrix(1,0,0,1,0,0)"><svg width="311.81484738461535" viewBox="-11.1 -26.950000000000003 181.79999999999998 134.95" height="245.672304" data-palette-color="#919591"><svg></svg><svg></svg><svg></svg><svg></svg><g class="wordmark-text-0" data-fill-palette-color="primary" id="text-0"><path d="M27.75-8.05l-0.8 7.5c-1.8 0.767-4.3 1.15-7.5 1.15-3.2 0-5.557-0.677-7.07-2.03-1.52-1.347-2.28-3.47-2.28-6.37v0c0-1.3 0.2-3.1 0.6-5.4v0c0.833-4.833 2.277-8.333 4.33-10.5 2.047-2.167 5.32-3.25 9.82-3.25v0c3.233 0 5.45 0.367 6.65 1.1v0l-2.55 6.95c-1.667-0.467-3.183-0.7-4.55-0.7-1.367 0-2.323 0.117-2.87 0.35-0.553 0.233-0.897 0.683-1.03 1.35v0l-1.95 10.7c0.7 0.167 1.91 0.25 3.63 0.25 1.713 0 3.57-0.367 5.57-1.1zM-11-12.05h19.95c-0.133 1.033-0.217 1.733-0.25 2.1v0zM-10.1-16.85h20l-0.45 2.1zM-10.8-7.25h19.45c0 0.533 0.067 1.233 0.2 2.1v0zM-8.1-21.65h19.75c-0.4 0.867-0.683 1.533-0.85 2v0zM-6.45-2.4h16.15c0.4 0.8 0.833 1.417 1.3 1.85v0zM-1.4-26.45h17.4c-0.8 0.467-1.483 1.017-2.05 1.65v0zM49.95 0h-8.75l4.6-26.45h8.8zM39.95-2.4l-0.4 2.25-21.2-2.25zM41.65-12.05l-0.4 2.25-21.2-2.25zM42.5-16.85l-0.4 2.25-21.2-2.25zM43.35-21.65l-0.4 2.25-21.2-2.25zM44.15-26.45l-0.35 2.25-21.2-2.25zM40.8-7.25l-0.4 2.25-21.2-2.25zM88.15-26.45l-1.35 7.5h-5.4l-3.3 18.95h-8.8l3.3-18.95h-5.55l1.35-7.5zM68.2-2.4l-0.4 2.25-21.2-2.25zM69.9-12.05l-0.4 2.25-21.2-2.25zM70.75-16.85l-0.4 2.25-21.2-2.25zM65.95-21.65l-0.4 2.25-21.2-2.25zM66.75-26.45l-0.35 2.25-21.2-2.25zM69.05-7.25l-0.4 2.25-21.2-2.25zM98.7-2.4l-0.4 2.25-21.2-2.25zM99.55-7.25l-0.4 2.25-21.2-2.25zM96.7-21.65l0.45 2.25-21.2-2.25zM95.7-26.45l0.45 2.25-21.2-2.25zM97.7-16.85l0.45 2.25-21.2-2.25zM98.65-12.05l0.5 2.25-21.2-2.25zM97.2-26.45h8.6l1.1 9.6h0.3l4.15-9.6h8.75l-10.6 18.9-1.25 7.55h-8.45l1.3-7.55z" fill="#ffffff" fill-rule="nonzero" stroke="none" stroke-width="1" stroke-linecap="butt" stroke-linejoin="miter" stroke-miterlimit="10" stroke-dasharray="" stroke-dashoffset="0" font-family="none" font-weight="none" font-size="none" text-anchor="none" style="mix-blend-mode: normal" data-fill-palette-color="primary" opacity="1"></path><path transform="translate(0,35.75)" d="M32.75-15.55l-2.5 14.15c-3.4 1.333-6.867 2-10.4 2-3.533 0-6.05-0.693-7.55-2.08-1.5-1.38-2.25-3.52-2.25-6.42v0c0-1.433 0.233-3.483 0.7-6.15 0.467-2.667 1.183-4.95 2.15-6.85v0c2.1-4.033 6.35-6.05 12.75-6.05v0c3.733 0 6.333 0.367 7.8 1.1v0l-2.55 6.95c-2.1-0.467-3.99-0.7-5.67-0.7-1.687 0-2.88 0.117-3.58 0.35-0.7 0.233-1.117 0.683-1.25 1.35v0l-2.1 11.5h2.3c0.833 0 1.477-0.093 1.93-0.28 0.447-0.18 0.72-0.587 0.82-1.22v0l0.35-1.95h-2.05l1-5.7zM-11.1-12.05h19.95c-0.133 1.033-0.217 1.733-0.25 2.1v0zM-10.2-16.85h20l-0.45 2.1zM-10.9-7.25h19.45c0 0.533 0.067 1.233 0.2 2.1v0zM-8.2-21.65h19.75c-0.4 0.867-0.683 1.533-0.85 2v0zM-6.55-2.4h16.15c0.4 0.8 0.833 1.417 1.3 1.85v0zM-1.5-26.45h17.4c-0.8 0.467-1.483 1.017-2.05 1.65v0zM45.45-12.05l-0.4 2.25-21.2-2.25zM46.3-16.85l-0.4 2.25-21.2-2.25zM47.15-21.65l-0.4 2.25-21.2-2.25zM47.95-26.45l-0.35 2.25-21.2-2.25zM23.7-7.25h21.15v1c0 0.567 0.017 0.983 0.05 1.25v0zM46.8-0.15v0l-21.2-2.25h19.75c0.367 0.933 0.85 1.683 1.45 2.25zM54.55-7h2.5c0.9 0 1.527-0.11 1.88-0.33 0.347-0.213 0.587-0.737 0.72-1.57v0l3.15-17.55h8.4l-2.6 14.9c-0.8 4.667-2.09 7.857-3.87 9.57-1.787 1.72-4.83 2.58-9.13 2.58v0c-3.433 0-5.833-0.51-7.2-1.53-1.367-1.013-2.05-2.787-2.05-5.32v0c0-1.4 0.183-3.167 0.55-5.3v0l2.65-14.9h8.4zM90.1 0h-8.75l4.6-26.45h8.8zM80.1-2.4l-0.4 2.25-21.2-2.25zM81.8-12.05l-0.4 2.25-21.2-2.25zM82.65-16.85l-0.4 2.25-21.2-2.25zM83.5-21.65l-0.4 2.25-21.2-2.25zM84.3-26.45l-0.35 2.25-21.2-2.25zM80.95-7.25l-0.4 2.25-21.2-2.25zM110.4-26.45h11.25c3.633 0 6.233 0.65 7.8 1.95 1.567 1.3 2.35 3.383 2.35 6.25v0c0 1.367-0.183 3.05-0.55 5.05v0c-0.833 4.733-2.273 8.117-4.32 10.15-2.053 2.033-5.363 3.05-9.93 3.05v0h-11.2zM120.45-19.15v0h-2.9l-2.1 12h2.9c0.967 0 1.71-0.127 2.23-0.38 0.513-0.247 0.837-0.753 0.97-1.52v0l1.45-8.25c0.033-0.133 0.05-0.4 0.05-0.8v0c0-0.7-0.867-1.05-2.6-1.05zM104.55-2.4l-0.4 2.25-21.2-2.25zM106.25-12.05l-0.4 2.25-21.2-2.25zM107.1-16.85l-0.4 2.25-21.2-2.25zM107.95-21.65l-0.4 2.25-21.2-2.25zM108.75-26.45l-0.35 2.25-21.2-2.25zM105.4-7.25l-0.4 2.25-21.2-2.25zM163.15-15.55l-0.85 4.8h-7.45l-0.6 3.4h9.25l-1.3 7.35h-17.65l4.6-26.45h17.6l-2.35 7.5h-8.15l-0.6 3.4zM143.3-2.4l-0.4 2.25-21.2-2.25zM145-12.05l-0.4 2.25-21.2-2.25zM145.85-16.85l-0.4 2.25-21.2-2.25zM146.7-21.65l-0.4 2.25-21.2-2.25zM147.5-26.45l-0.35 2.25-21.2-2.25zM144.15-7.25l-0.4 2.25-21.2-2.25z" fill="#ffffff" fill-rule="nonzero" stroke="none" stroke-width="1" stroke-linecap="butt" stroke-linejoin="miter" stroke-miterlimit="10" stroke-dasharray="" stroke-dashoffset="0" font-family="none" font-weight="none" font-size="none" text-anchor="none" style="mix-blend-mode: normal" data-fill-palette-color="secondary" opacity="1"></path><path transform="translate(0,71.5)" d="M25.45-26.95v0c3.6 0 6.167 0.69 7.7 2.07 1.533 1.387 2.3 3.547 2.3 6.48v0c0 1.433-0.183 3.167-0.55 5.2v0c-0.833 4.8-2.3 8.3-4.4 10.5-2.1 2.2-5.4 3.3-9.9 3.3v0c-3.533 0-6.05-0.693-7.55-2.08-1.5-1.38-2.25-3.52-2.25-6.42v0c0-1.5 0.183-3.267 0.55-5.3v0c0.833-4.8 2.283-8.293 4.35-10.48 2.067-2.18 5.317-3.27 9.75-3.27zM19.1-7h2.95c0.967 0 1.693-0.117 2.18-0.35 0.48-0.233 0.803-0.75 0.97-1.55v0l1.9-10.45h-3.05c-0.933 0-1.657 0.117-2.17 0.35-0.52 0.233-0.83 0.733-0.93 1.5v0zM-10.35-12.05h19.95c-0.133 1.033-0.217 1.733-0.25 2.1v0zM-9.45-16.85h20l-0.45 2.1zM-10.15-7.25h19.45c0 0.533 0.067 1.233 0.2 2.1v0zM-7.45-21.65h19.75c-0.4 0.867-0.683 1.533-0.85 2v0zM-5.8-2.4h16.15c0.4 0.8 0.833 1.417 1.3 1.85v0zM-0.75-26.45h17.4c-0.8 0.467-1.483 1.017-2.05 1.65v0zM65.85-15.55l-1 5.95h-6.6l-1.7 9.6h-8.4l4.6-26.45h16.65l-2.3 7.5h-7.25l-0.6 3.4zM46.95-2.4l-0.4 2.25-21.2-2.25zM48.65-12.05l-0.4 2.25-21.2-2.25zM49.5-16.85l-0.4 2.25-21.2-2.25zM50.35-21.65l-0.4 2.25-21.2-2.25zM51.15-26.45l-0.35 2.25-21.2-2.25zM47.8-7.25l-0.4 2.25-21.2-2.25z" fill="#ffffff" fill-rule="nonzero" stroke="none" stroke-width="1" stroke-linecap="butt" stroke-linejoin="miter" stroke-miterlimit="10" stroke-dasharray="" stroke-dashoffset="0" font-family="none" font-weight="none" font-size="none" text-anchor="none" style="mix-blend-mode: normal" data-fill-palette-color="primary" opacity="1"></path><path transform="translate(0,107.25)" d="M9.75-16.85l-0.15 1c-0.067 0.267-0.133 0.633-0.2 1.1v0l-19.65-2.1zM-10.8-12.05h19.85c-0.1 0.767-0.15 1.467-0.15 2.1v0zM-9.05-21.65h20l-0.6 2.05zM-10.15-7.25h19.1c0.133 0.933 0.25 1.633 0.35 2.1v0zM-6.7-26.45h19.7c-0.467 0.867-0.8 1.533-1 2v0zM-5.35-2.4h15.8c0.433 0.767 0.933 1.383 1.5 1.85v0zM0.2-31.25h17.55c-0.967 0.6-1.717 1.15-2.25 1.65v0zM22.15 0.75v0c-4.2 0-7.207-0.817-9.02-2.45-1.82-1.633-2.73-4.15-2.73-7.55v0c0-1.433 0.233-3.55 0.7-6.35v0c1-5.733 2.727-9.9 5.18-12.5 2.447-2.6 6.32-3.9 11.62-3.9v0c1.233 0 2.643 0.123 4.23 0.37 1.58 0.253 2.737 0.563 3.47 0.93v0l-2.8 7.65c-1.967-0.467-3.807-0.7-5.52-0.7-1.72 0-2.947 0.167-3.68 0.5-0.733 0.333-1.183 1-1.35 2v0l-2.3 13.1c1.2 0.267 2.433 0.4 3.7 0.4v0c2.7 0 5.167-0.4 7.4-1.2v0l-0.8 8.4c-2.133 0.867-4.833 1.3-8.1 1.3zM66.8 0h-8.4l1.55-9.15h-5.6l-1.6 9.15h-8.4l4.6-26.45h8.45l-1.65 9.15h5.65l1.6-9.15h8.45zM43.1-2.4l-0.4 2.25-21.2-2.25zM44.8-12.05l-0.4 2.25-21.2-2.25zM45.65-16.85l-0.4 2.25-21.2-2.25zM46.5-21.65l-0.4 2.25-21.2-2.25zM47.3-26.45l-0.35 2.25-21.2-2.25zM43.95-7.25l-0.4 2.25-21.2-2.25zM91.7 0h-8.75l4.6-26.45h8.8zM81.7-2.4l-0.4 2.25-21.2-2.25zM83.4-12.05l-0.4 2.25-21.2-2.25zM84.25-16.85l-0.4 2.25-21.2-2.25zM85.1-21.65l-0.4 2.25-21.2-2.25zM85.9-26.45l-0.35 2.25-21.2-2.25zM82.55-7.25l-0.4 2.25-21.2-2.25zM129.7 0h-6.8l-5.15-9.9h-0.2l-1.75 9.9h-8.4l4.6-26.45h6.8l5.2 9.85h0.3l1.7-9.85h8.35zM106.15-2.4l-0.4 2.25-21.2-2.25zM107.85-12.05l-0.4 2.25-21.2-2.25zM108.7-16.85l-0.4 2.25-21.2-2.25zM109.55-21.65l-0.4 2.25-21.2-2.25zM110.35-26.45l-0.35 2.25-21.2-2.25zM107-7.25l-0.4 2.25-21.2-2.25zM170.7 0h-8.75l-0.2-4.05h-6.3l-1.55 4.05h-8.65l11.1-26.45h12.4zM158.1-11.2h3.65v-7.6h-0.7zM144.6-2.4l-0.95 2.2-20.5-2.2zM146.65-7.25l-0.95 2.2-20.5-2.2zM148.65-12.05l-0.9 2.2-20.5-2.2zM150.7-16.85l-0.95 2.2-20.45-2.2zM152.7-21.65l-0.9 2.2-20.45-2.2zM154.7-26.45l-0.9 2.15-20.4-2.15z" fill="#ffffff" fill-rule="nonzero" stroke="none" stroke-width="1" stroke-linecap="butt" stroke-linejoin="miter" stroke-miterlimit="10" stroke-dasharray="" stroke-dashoffset="0" font-family="none" font-weight="none" font-size="none" text-anchor="none" style="mix-blend-mode: normal" data-fill-palette-color="secondary" opacity="1"></path></g></svg></g></svg></g><g transform="matrix(1,0,0,1,0,258.95491040545915)"><svg viewBox="0 0 183.06649689950765 17.16090679510135" height="17.16090679510135" width="183.06649689950765"><g transform="matrix(1,0,0,1,0,0)"><svg width="183.06649689950765" viewBox="-0.45 -39 543.99 51" height="17.16090679510135" data-palette-color="#636365"><path d="M20.3-36L32.35-36 32.35-33.15 30.45-32.9Q29.45-32.75 29.03-32.38 28.6-32 27.95-30.8L27.95-30.8 18.05-12.7 18.05-5.2Q18.05-4.2 18.32-3.83 18.6-3.45 19.5-3.3L19.5-3.3 22.35-2.85 22.35 0 9.6 0 9.6-2.85 12.45-3.3Q13.35-3.45 13.63-3.83 13.9-4.2 13.9-5.2L13.9-5.2 13.9-12.7 3.95-30.8Q3.35-31.85 2.75-32.25 2.15-32.65 0.95-32.9L0.95-32.9-0.45-33.15-0.45-36 12.3-36 12.3-33.2 9.8-32.9Q8.2-32.7 8.2-31.95L8.2-31.95Q8.2-31.6 8.6-30.8L8.6-30.8 16.35-16.55 24-30.8Q24.35-31.4 24.35-31.85L24.35-31.85Q24.35-32.55 22.65-32.85L22.65-32.85 20.3-33.2 20.3-36ZM41.4 0.5Q36.35 0.5 33.5-2.7 30.65-5.9 30.65-11.2L30.65-11.2Q30.65-15.05 32.2-18.07 33.75-21.1 36.55-22.8 39.35-24.5 43.05-24.5L43.05-24.5Q48.05-24.5 50.92-21.33 53.8-18.15 53.8-13L53.8-13Q53.8-9.15 52.27-6.08 50.75-3 47.92-1.25 45.1 0.5 41.4 0.5L41.4 0.5ZM42.9-2.85Q46.55-2.85 48-5.03 49.45-7.2 49.45-12L49.45-12Q49.45-16.45 47.4-18.82 45.35-21.2 41.55-21.2L41.55-21.2Q37.9-21.2 36.45-19 35-16.8 35-12L35-12Q35-7.45 37.05-5.15 39.1-2.85 42.9-2.85L42.9-2.85ZM81.3-3.05L83.9-2.7 83.9 0 76.9 0 76.5-3.8Q72.59 0.5 68.05 0.5L68.05 0.5Q64.34 0.5 62.32-1.35 60.3-3.2 60.3-6.65L60.3-6.65 60.3-19.2Q60.3-20.3 60.09-20.68 59.9-21.05 59.15-21.1L59.15-21.1 56.55-21.4 56.55-24 64.3-24 64.3-8Q64.3-3.25 68.95-3.25L68.95-3.25Q73.59-3.25 76.2-7.1L76.2-7.1 76.2-19.2Q76.2-20.3 75.97-20.68 75.75-21.05 75.05-21.1L75.05-21.1 72.3-21.4 72.3-24 80.2-24 80.2-4.9Q80.2-3.85 80.4-3.48 80.59-3.1 81.3-3.05L81.3-3.05ZM102.54-24.5Q104.84-24.5 106.54-23.55L106.54-23.55 106.14-17.25 103.24-17.25 102.69-20.4Q102.09-20.8 100.84-20.8L100.84-20.8Q98.89-20.8 97.24-19.05 95.59-17.3 94.99-14.85L94.99-14.85 94.99-4.9Q94.99-3.85 95.22-3.48 95.44-3.1 96.14-3.05L96.14-3.05 99.69-2.7 99.69 0 87.19 0 87.19-2.7 89.84-3.05Q90.59-3.1 90.79-3.48 90.99-3.85 90.99-4.9L90.99-4.9 90.99-19.2Q90.99-20.3 90.79-20.68 90.59-21.05 89.84-21.1L89.84-21.1 87.29-21.4 87.29-24 94.29-24 94.79-19.25Q95.89-21.45 98.04-22.98 100.19-24.5 102.54-24.5L102.54-24.5ZM135.44-24.5Q139.99-24.5 142.39-21.28 144.79-18.05 144.79-12.4L144.79-12.4Q144.79-8.8 143.21-5.85 141.64-2.9 138.91-1.2 136.19 0.5 132.79 0.5L132.79 0.5Q130.24 0.5 127.74-0.5L127.74-0.5 127.74 7.1Q127.74 8.15 127.96 8.53 128.19 8.9 128.89 8.95L128.89 8.95 132.29 9.3 132.29 12 119.94 12 119.94 9.3 122.64 8.95Q123.34 8.9 123.54 8.53 123.74 8.15 123.74 7.1L123.74 7.1 123.74-19.2Q123.74-20.3 123.54-20.68 123.34-21.05 122.64-21.1L122.64-21.1 120.04-21.4 120.04-24 127.24-24 127.64-20.75Q130.79-24.5 135.44-24.5L135.44-24.5ZM134.29-2.85Q137.59-2.85 139.01-5.23 140.44-7.6 140.44-12.4L140.44-12.4Q140.44-16.65 138.76-18.93 137.09-21.2 134.04-21.2L134.04-21.2Q132.14-21.2 130.44-20.13 128.74-19.05 127.74-17.4L127.74-17.4 127.74-4.6Q130.44-2.85 134.29-2.85L134.29-2.85ZM168.84-3.05L171.44-2.7 171.44 0 164.34 0 163.94-3.95Q161.69-1.75 159.69-0.63 157.69 0.5 155.59 0.5L155.59 0.5Q152.59 0.5 150.81-1.28 149.04-3.05 149.04-6L149.04-6Q149.04-8.95 150.81-10.78 152.59-12.6 155.89-13.05L155.89-13.05 163.74-14.15 163.74-17.5Q163.74-19.5 162.44-20.5 161.14-21.5 158.64-21.5L158.64-21.5Q155.89-21.5 153.84-20.55L153.84-20.55 153.24-16.9 150.39-16.9 149.99-22.65Q155.04-24.5 159.34-24.5L159.34-24.5Q162.84-24.5 165.29-22.7 167.74-20.9 167.74-17.6L167.74-17.6 167.74-4.9Q167.74-3.85 167.94-3.48 168.14-3.1 168.84-3.05L168.84-3.05ZM153.29-6.35Q153.29-4.7 154.19-3.8 155.09-2.9 156.64-2.9L156.64-2.9Q158.19-2.9 159.86-3.9 161.54-4.9 163.74-6.9L163.74-6.9 163.74-11.45 157.09-10.3Q155.24-10 154.26-9 153.29-8 153.29-6.35L153.29-6.35ZM174.58-1.25L175.03-7.3 177.93-7.3 178.33-3.65Q180.73-2.6 183.53-2.6L183.53-2.6Q185.53-2.6 186.93-3.45 188.33-4.3 188.33-6.25L188.33-6.25Q188.33-7.4 187.43-8.22 186.53-9.05 184.68-9.8L184.68-9.8 181.18-11.2Q178.03-12.45 176.61-13.9 175.18-15.35 175.18-17.9L175.18-17.9Q175.18-21.1 177.78-22.8 180.38-24.5 184.03-24.5L184.03-24.5Q187.58-24.5 191.78-23.1L191.78-23.1 191.38-17.25 188.53-17.25 187.88-20.9Q185.43-21.65 183.13-21.65L183.13-21.65Q179.03-21.65 179.03-18.5L179.03-18.5Q179.03-17.15 180.01-16.28 180.98-15.4 183.08-14.55L183.08-14.55 186.18-13.35Q189.43-12.05 190.93-10.7 192.43-9.35 192.43-7L192.43-7Q192.43-4.7 191.16-3 189.88-1.3 187.78-0.4 185.68 0.5 183.28 0.5L183.28 0.5Q180.68 0.5 178.68 0.05 176.68-0.4 174.58-1.25L174.58-1.25ZM196.08-1.25L196.53-7.3 199.43-7.3 199.83-3.65Q202.23-2.6 205.03-2.6L205.03-2.6Q207.03-2.6 208.43-3.45 209.83-4.3 209.83-6.25L209.83-6.25Q209.83-7.4 208.93-8.22 208.03-9.05 206.18-9.8L206.18-9.8 202.68-11.2Q199.53-12.45 198.11-13.9 196.68-15.35 196.68-17.9L196.68-17.9Q196.68-21.1 199.28-22.8 201.88-24.5 205.53-24.5L205.53-24.5Q209.08-24.5 213.28-23.1L213.28-23.1 212.88-17.25 210.03-17.25 209.38-20.9Q206.93-21.65 204.63-21.65L204.63-21.65Q200.53-21.65 200.53-18.5L200.53-18.5Q200.53-17.15 201.51-16.28 202.48-15.4 204.58-14.55L204.58-14.55 207.68-13.35Q210.93-12.05 212.43-10.7 213.93-9.35 213.93-7L213.93-7Q213.93-4.7 212.66-3 211.38-1.3 209.28-0.4 207.18 0.5 204.78 0.5L204.78 0.5Q202.18 0.5 200.18 0.05 198.18-0.4 196.08-1.25L196.08-1.25ZM232.58-24.5Q237.13-24.5 239.53-21.28 241.93-18.05 241.93-12.4L241.93-12.4Q241.93-8.8 240.35-5.85 238.78-2.9 236.05-1.2 233.33 0.5 229.93 0.5L229.93 0.5Q227.38 0.5 224.88-0.5L224.88-0.5 224.88 7.1Q224.88 8.15 225.1 8.53 225.33 8.9 226.03 8.95L226.03 8.95 229.43 9.3 229.43 12 217.08 12 217.08 9.3 219.78 8.95Q220.48 8.9 220.68 8.53 220.88 8.15 220.88 7.1L220.88 7.1 220.88-19.2Q220.88-20.3 220.68-20.68 220.48-21.05 219.78-21.1L219.78-21.1 217.18-21.4 217.18-24 224.38-24 224.78-20.75Q227.93-24.5 232.58-24.5L232.58-24.5ZM231.43-2.85Q234.73-2.85 236.15-5.23 237.58-7.6 237.58-12.4L237.58-12.4Q237.58-16.65 235.9-18.93 234.23-21.2 231.18-21.2L231.18-21.2Q229.28-21.2 227.58-20.13 225.88-19.05 224.88-17.4L224.88-17.4 224.88-4.6Q227.58-2.85 231.43-2.85L231.43-2.85ZM256.68 0.5Q251.63 0.5 248.78-2.7 245.93-5.9 245.93-11.2L245.93-11.2Q245.93-15.05 247.48-18.07 249.03-21.1 251.83-22.8 254.63-24.5 258.33-24.5L258.33-24.5Q263.33-24.5 266.2-21.33 269.08-18.15 269.08-13L269.08-13Q269.08-9.15 267.55-6.08 266.03-3 263.2-1.25 260.38 0.5 256.68 0.5L256.68 0.5ZM258.18-2.85Q261.83-2.85 263.28-5.03 264.73-7.2 264.73-12L264.73-12Q264.73-16.45 262.68-18.82 260.63-21.2 256.83-21.2L256.83-21.2Q253.18-21.2 251.73-19 250.28-16.8 250.28-12L250.28-12Q250.28-7.45 252.33-5.15 254.38-2.85 258.18-2.85L258.18-2.85ZM288.47-24.5Q290.77-24.5 292.47-23.55L292.47-23.55 292.07-17.25 289.17-17.25 288.62-20.4Q288.02-20.8 286.77-20.8L286.77-20.8Q284.82-20.8 283.17-19.05 281.52-17.3 280.92-14.85L280.92-14.85 280.92-4.9Q280.92-3.85 281.15-3.48 281.37-3.1 282.07-3.05L282.07-3.05 285.62-2.7 285.62 0 273.12 0 273.12-2.7 275.77-3.05Q276.52-3.1 276.72-3.48 276.92-3.85 276.92-4.9L276.92-4.9 276.92-19.2Q276.92-20.3 276.72-20.68 276.52-21.05 275.77-21.1L275.77-21.1 273.22-21.4 273.22-24 280.22-24 280.72-19.25Q281.82-21.45 283.97-22.98 286.12-24.5 288.47-24.5L288.47-24.5ZM306.17-2.6Q307.47-2.6 309.72-3.05L309.72-3.05 309.27-0.45Q308.52-0.1 306.82 0.2 305.12 0.5 303.32 0.5L303.32 0.5Q300.17 0.5 298.77-1.35 297.37-3.2 297.37-7.05L297.37-7.05 297.37-21.15 293.67-21.15 293.67-23.55 297.37-24 297.37-28.45 301.37-29.35 301.37-24 308.02-24.5 308.02-21.15 301.37-21.15 301.37-8.6Q301.37-6.35 301.75-5.08 302.12-3.8 303.15-3.2 304.17-2.6 306.17-2.6L306.17-2.6ZM335.37-2.6Q336.67-2.6 338.92-3.05L338.92-3.05 338.47-0.45Q337.72-0.1 336.02 0.2 334.32 0.5 332.52 0.5L332.52 0.5Q329.37 0.5 327.97-1.35 326.57-3.2 326.57-7.05L326.57-7.05 326.57-21.15 322.87-21.15 322.87-23.55 326.57-24 326.57-28.45 330.57-29.35 330.57-24 337.22-24.5 337.22-21.15 330.57-21.15 330.57-8.6Q330.57-6.35 330.94-5.08 331.32-3.8 332.34-3.2 333.37-2.6 335.37-2.6L335.37-2.6ZM352.26 0.5Q347.21 0.5 344.36-2.7 341.51-5.9 341.51-11.2L341.51-11.2Q341.51-15.05 343.06-18.07 344.61-21.1 347.41-22.8 350.21-24.5 353.91-24.5L353.91-24.5Q358.91-24.5 361.79-21.33 364.66-18.15 364.66-13L364.66-13Q364.66-9.15 363.14-6.08 361.61-3 358.79-1.25 355.96 0.5 352.26 0.5L352.26 0.5ZM353.76-2.85Q357.41-2.85 358.86-5.03 360.31-7.2 360.31-12L360.31-12Q360.31-16.45 358.26-18.82 356.21-21.2 352.41-21.2L352.41-21.2Q348.76-21.2 347.31-19 345.86-16.8 345.86-12L345.86-12Q345.86-7.45 347.91-5.15 349.96-2.85 353.76-2.85L353.76-2.85ZM392.71-2.9Q395.96-2.9 400.56-4.3L400.56-4.3 401.26-1.8Q399.46-0.9 396.73-0.2 394.01 0.5 391.31 0.5L391.31 0.5Q386.21 0.5 383.63-2.63 381.06-5.75 381.06-11L381.06-11Q381.06-17.1 383.91-20.8 386.76-24.5 392.21-24.5L392.21-24.5Q395.86-24.5 397.88-23.05 399.91-21.6 400.68-18.9 401.46-16.2 401.46-12.05L401.46-12.05 385.41-11.05Q385.51-7 387.38-4.95 389.26-2.9 392.71-2.9L392.71-2.9ZM391.56-21.2Q389.36-21.2 388.08-20.53 386.81-19.85 386.21-18.3 385.61-16.75 385.41-13.9L385.41-13.9 397.36-14.95Q397.36-17.95 396.03-19.58 394.71-21.2 391.56-21.2L391.56-21.2ZM428.41-2.9L429.66-2.65 429.66 0 418.76 0 418.76-2.6 420.86-2.85Q421.46-2.9 421.46-3.45L421.46-3.45Q421.46-3.65 421.28-3.93 421.11-4.2 420.81-4.55L420.81-4.55 416.36-10.05 412.01-4.55Q411.26-3.6 411.26-3.35L411.26-3.35Q411.26-2.9 411.96-2.85L411.96-2.85 413.96-2.6 413.96 0 403.81 0 403.81-2.65 405.46-2.9Q406.36-3.05 406.91-3.43 407.46-3.8 408.21-4.7L408.21-4.7 414.36-12.25 408.06-19.7Q407.41-20.55 407.01-20.8 406.61-21.05 405.81-21.2L405.81-21.2 404.16-21.5 404.16-24 414.81-24 414.81-21.55 412.76-21.25Q412.26-21.2 412.26-20.8L412.26-20.8Q412.26-20.5 412.96-19.7L412.96-19.7 417.16-14.5 421.26-19.7Q421.36-19.85 421.66-20.2 421.96-20.55 421.96-20.8L421.96-20.8Q421.96-21.2 421.46-21.25L421.46-21.25 419.36-21.55 419.36-24 429.31-24 429.31-21.5 427.66-21.2Q426.66-21 426.16-20.73 425.66-20.45 425.11-19.7L425.11-19.7 419.16-12.3 425.91-4.3Q426.46-3.7 427.01-3.38 427.56-3.05 428.41-2.9L428.41-2.9ZM446.65-24.5Q451.2-24.5 453.6-21.28 456-18.05 456-12.4L456-12.4Q456-8.8 454.43-5.85 452.85-2.9 450.13-1.2 447.4 0.5 444 0.5L444 0.5Q441.45 0.5 438.95-0.5L438.95-0.5 438.95 7.1Q438.95 8.15 439.18 8.53 439.4 8.9 440.1 8.95L440.1 8.95 443.5 9.3 443.5 12 431.15 12 431.15 9.3 433.85 8.95Q434.55 8.9 434.75 8.53 434.95 8.15 434.95 7.1L434.95 7.1 434.95-19.2Q434.95-20.3 434.75-20.68 434.55-21.05 433.85-21.1L433.85-21.1 431.25-21.4 431.25-24 438.45-24 438.85-20.75Q442-24.5 446.65-24.5L446.65-24.5ZM445.5-2.85Q448.8-2.85 450.23-5.23 451.65-7.6 451.65-12.4L451.65-12.4Q451.65-16.65 449.98-18.93 448.3-21.2 445.25-21.2L445.25-21.2Q443.35-21.2 441.65-20.13 439.95-19.05 438.95-17.4L438.95-17.4 438.95-4.6Q441.65-2.85 445.5-2.85L445.5-2.85ZM459.6 0L459.6-2.7 462.2-3.05Q462.9-3.1 463.13-3.48 463.35-3.85 463.35-4.9L463.35-4.9 463.35-34.3Q463.35-35.3 463.13-35.63 462.9-35.95 462.2-36.05L462.2-36.05 459.6-36.35 459.6-39 467.35-39 467.35-4.9Q467.35-3.85 467.55-3.48 467.75-3.1 468.5-3.05L468.5-3.05 471.05-2.7 471.05 0 459.6 0ZM485.15 0.5Q480.1 0.5 477.25-2.7 474.4-5.9 474.4-11.2L474.4-11.2Q474.4-15.05 475.95-18.07 477.5-21.1 480.3-22.8 483.1-24.5 486.8-24.5L486.8-24.5Q491.8-24.5 494.67-21.33 497.55-18.15 497.55-13L497.55-13Q497.55-9.15 496.02-6.08 494.5-3 491.67-1.25 488.85 0.5 485.15 0.5L485.15 0.5ZM486.65-2.85Q490.3-2.85 491.75-5.03 493.2-7.2 493.2-12L493.2-12Q493.2-16.45 491.15-18.82 489.1-21.2 485.3-21.2L485.3-21.2Q481.65-21.2 480.2-19 478.75-16.8 478.75-12L478.75-12Q478.75-7.45 480.8-5.15 482.85-2.85 486.65-2.85L486.65-2.85ZM516.95-24.5Q519.25-24.5 520.95-23.55L520.95-23.55 520.55-17.25 517.64-17.25 517.1-20.4Q516.5-20.8 515.25-20.8L515.25-20.8Q513.3-20.8 511.65-19.05 510-17.3 509.4-14.85L509.4-14.85 509.4-4.9Q509.4-3.85 509.62-3.48 509.85-3.1 510.55-3.05L510.55-3.05 514.1-2.7 514.1 0 501.6 0 501.6-2.7 504.25-3.05Q505-3.1 505.19-3.48 505.4-3.85 505.4-4.9L505.4-4.9 505.4-19.2Q505.4-20.3 505.19-20.68 505-21.05 504.25-21.1L504.25-21.1 501.69-21.4 501.69-24 508.69-24 509.19-19.25Q510.3-21.45 512.45-22.98 514.6-24.5 516.95-24.5L516.95-24.5ZM534.79-2.9Q538.04-2.9 542.64-4.3L542.64-4.3 543.34-1.8Q541.54-0.9 538.82-0.2 536.09 0.5 533.39 0.5L533.39 0.5Q528.29 0.5 525.72-2.63 523.14-5.75 523.14-11L523.14-11Q523.14-17.1 525.99-20.8 528.84-24.5 534.29-24.5L534.29-24.5Q537.94-24.5 539.97-23.05 541.99-21.6 542.77-18.9 543.54-16.2 543.54-12.05L543.54-12.05 527.49-11.05Q527.59-7 529.47-4.95 531.34-2.9 534.79-2.9L534.79-2.9ZM533.64-21.2Q531.44-21.2 530.17-20.53 528.89-19.85 528.29-18.3 527.69-16.75 527.49-13.9L527.49-13.9 539.44-14.95Q539.44-17.95 538.12-19.58 536.79-21.2 533.64-21.2L533.64-21.2Z" opacity="1" transform="matrix(1,0,0,1,0,0)" fill="#ffffff" class="slogan-text-1" data-fill-palette-color="secondary" id="text-1"></path></svg></g></svg></g></svg></g></svg></g><g transform="matrix(1,0,0,1,0,30.651953873932726)"><svg viewBox="0 0 192.70157568369228 214.811909452695" height="214.811909452695" width="192.70157568369228"><g><svg xmlns="http://www.w3.org/2000/svg" xmlns:xlink="http://www.w3.org/1999/xlink" version="1.1" x="0" y="0" viewBox="7.87 3.285 84.261 93.929" enable-background="new 0 0 100 100" xml:space="preserve" height="214.811909452695" width="192.70157568369228" class="icon-icon-0" data-fill-palette-color="accent" id="icon-0"><g fill="#636365" data-fill-palette-color="accent"><path fill="#ffffff" d="M66.018 82.742L66.192 82.642A0.8 0.8 0 0 1 66.018 82.522z" data-fill-palette-color="accent"></path><path d="M52.426 46.137L55.604 44.241A0.98 0.98 0 0 0 56.032 43.486V39.34C56.032 39.066 55.839 38.957 55.604 39.097L52.426 40.994A0.98 0.98 0 0 0 51.998 41.749V45.895C51.998 46.168 52.191 46.278 52.426 46.137" fill="#ffffff" data-fill-palette-color="accent"></path><path d="M52.426 55.803L55.604 53.906A0.98 0.98 0 0 0 56.032 53.151V49.005C56.032 48.732 55.839 48.622 55.604 48.763L52.426 50.661A0.98 0.98 0 0 0 51.998 51.414V55.561C51.998 55.834 52.191 55.943 52.426 55.803" fill="#ffffff" data-fill-palette-color="accent"></path><path d="M52.426 65.469L55.604 63.571A0.98 0.98 0 0 0 56.032 62.817V58.672C56.032 58.397 55.839 58.287 55.604 58.428L52.426 60.326A0.98 0.98 0 0 0 51.998 61.079V65.225C51.998 65.499 52.191 65.609 52.426 65.469" fill="#ffffff" data-fill-palette-color="accent"></path><path d="M52.426 75.135L55.604 73.237A0.98 0.98 0 0 0 56.032 72.484V68.337C56.032 68.063 55.839 67.954 55.604 68.095L52.426 69.992A0.98 0.98 0 0 0 51.998 70.746V74.892C51.998 75.165 52.191 75.275 52.426 75.135" fill="#ffffff" data-fill-palette-color="accent"></path><path d="M26.135 72.448L29.31 70.552A0.98 0.98 0 0 0 29.738 69.797V65.651C29.738 65.377 29.545 65.267 29.31 65.408L26.135 67.305A0.98 0.98 0 0 0 25.707 68.059V72.205C25.708 72.481 25.9 72.59 26.135 72.448" fill="#ffffff" data-fill-palette-color="accent"></path><path d="M55.604 82.902A0.98 0.98 0 0 0 56.032 82.147V78.001C56.032 77.727 55.839 77.618 55.604 77.759L52.426 79.655A0.98 0.98 0 0 0 51.998 80.41V84.556C51.998 84.831 52.191 84.939 52.426 84.798z" fill="#ffffff" data-fill-palette-color="accent"></path><path d="M81.783 53.818L78.607 55.715A0.98 0.98 0 0 0 78.179 56.471V60.617C78.179 60.89 78.37 61 78.607 60.858L81.783 58.961A0.98 0.98 0 0 0 82.211 58.207V54.061C82.211 53.787 82.018 53.678 81.783 53.818" fill="#ffffff" data-fill-palette-color="accent"></path><path d="M81.783 63.484L78.607 65.382A0.97 0.97 0 0 0 78.179 66.136V70.282C78.179 70.555 78.37 70.664 78.607 70.524L81.783 68.627C82.017 68.485 82.211 68.147 82.211 67.872V63.726C82.211 63.453 82.018 63.343 81.783 63.484" fill="#ffffff" data-fill-palette-color="accent"></path><path d="M87.037 22.986L55.094 4.543C53.688 3.732 51.881 3.285 50 3.285 48.121 3.285 46.312 3.732 44.907 4.543L12.964 22.986C10.06 24.662 7.87 28.454 7.87 31.808V68.693C7.87 72.045 10.06 75.838 12.964 77.513L44.907 95.956C46.312 96.768 48.12 97.214 50 97.214 51.881 97.214 53.688 96.768 55.094 95.956L87.037 77.513C89.939 75.837 92.131 72.044 92.131 68.693V31.808C92.131 28.454 89.939 24.662 87.037 22.986M33.953 82.725L15.955 72.333C14.893 71.721 13.853 69.918 13.853 68.693V59.3L23.855 53.525A1 1 0 0 1 23.949 53.525L33.953 59.3zM60.035 86.197L52.437 90.583 52.101 90.777C51.607 91.061 50.822 91.232 49.999 91.232 49.177 91.232 48.392 91.061 47.897 90.777L47.562 90.583 39.934 86.18V35.184A1 1 0 0 1 39.981 35.102L47.578 30.716 48.43 28.564 49.389 26.135A2.097 2.097 0 1 1 50.608 26.135L51.569 28.564 52.43 30.74 59.987 35.103A0.5 0.5 0 0 1 60.034 35.185zM86.148 68.693C86.148 69.918 85.107 71.72 84.046 72.333L66.191 82.643 66.017 82.743V49.487L76.021 43.712A0.5 0.5 0 0 1 76.115 43.712L86.148 49.505zM86.148 42.598L79.002 38.472C77.273 37.475 74.861 37.475 73.133 38.472L66.018 42.58V35.065C66.018 33.07 64.811 30.981 63.082 29.982L57.619 26.827A8.1 8.1 0 0 0 58.08 24.129C58.08 19.673 54.455 16.049 50 16.049S41.921 19.673 41.921 24.129C41.921 25.056 42.077 25.959 42.378 26.812L36.888 29.981C35.16 30.98 33.953 33.069 33.953 35.064V52.393L26.837 48.285C25.109 47.287 22.696 47.287 20.968 48.285L13.852 52.393V31.808C13.852 30.582 14.893 28.779 15.954 28.166L47.898 9.724C48.393 9.438 49.178 9.268 50 9.268S51.607 9.438 52.102 9.724L84.047 28.167C85.108 28.78 86.149 30.583 86.149 31.809V42.598z" fill="#ffffff" data-fill-palette-color="accent"></path></g></svg></g></svg></g></svg></g><defs></defs></svg><rect width="395.52" height="210.91064641460193" fill="none" stroke="none" visibility="hidden"></rect></g></svg></g></svg>